<svg xmlns="http://www.w3.org/2000/svg" xmlns:xlink="http://www.w3.org/1999/xlink" xml:space="preserve" version="1.1" x="0" y="0" viewBox="0 0 100 100" width="16" height="16"><g style="fill: #ffffff"><path d="M80 15C80 9.477 75.523 5 70 5L30 5C24.477 5 20 9.477 20 15L20 41.715C18.423 44.089 17.5 46.936 17.5 50S18.423 55.911 20 58.285L20 85C20 90.523 24.477 95 30 95L70 95C75.523 95 80 90.523 80 85L80 55.855C78.462 54.377 77.5 52.303 77.5 50S78.462 45.624 80 44.145L80 15ZM72.5 41.517C70.871 44.019 70 46.936 70 50S70.871 55.981 72.5 58.483L72.5 85C72.5 86.378 71.378 87.5 70 87.5L30 87.5C28.622 87.5 27.5 86.378 27.5 85L27.5 58.285 27.5 56.021 26.248 54.135C25.431 52.907 25 51.477 25 50 25 48.523 25.431 47.093 26.248 45.864L27.5 43.978 27.5 41.714 27.5 15C27.5 13.621 28.622 12.5 30 12.5L70 12.5C71.378 12.5 72.5 13.621 72.5 15L72.5 41.517Z" stroke="none"/><path d="M62.5 17.5 37.5 17.5 37.5 42.5 62.5 42.5 62.5 17.5ZM57.5 37.5 42.5 37.5 42.5 22.5 57.5 22.5 57.5 37.5Z" stroke="none"/><path d="M40 55 45 55 45 60 40 60 40 55Z" stroke="none"/><path d="M35 60 40 60 40 65 35 65 35 60Z" stroke="none"/><path d="M40 65 45 65 45 70 40 70 40 65Z" stroke="none"/><path d="M45 60 50 60 50 65 45 65 45 60Z" stroke="none"/><path d="M60 65 65 65 65 70 60 70 60 65Z" stroke="none"/></g></svg>