<svg xmlns="http://www.w3.org/2000/svg" xmlns:xlink="http://www.w3.org/1999/xlink" xml:space="preserve" version="1.1" x="0" y="0" viewBox="0 0 100 100" width="16" height="16"><path d="M85 10 15 10C12.239 10 10 12.239 10 15L10 65C10 67.761 12.239 70 15 70L85 70C87.761 70 90 67.761 90 65L90 15C90 12.239 87.761 10 85 10ZM85 65 15 65 15 15 85 15 85 65Z" stroke="none" fill="#fff"/><path d="M68.613 85.272 68.617 85.262 60 80.954 60 75 40 75 40 80.954 31.383 85.262 31.385 85.272C30.567 85.684 30 86.522 30 87.5 30 88.881 31.119 90 32.5 90L53.75 90 67.5 90C68.881 90 70 88.881 70 87.5 70 86.521 69.432 85.683 68.613 85.272Z" stroke="none" fill="#fff"/></svg>