<svg xmlns="http://www.w3.org/2000/svg" xmlns:xlink="http://www.w3.org/1999/xlink" xml:space="preserve" version="1.1" x="0" y="0" viewBox="0 0 100 100" width="16" height="16"><g style="fill: #ffffff"><path d="M65 10 35 10C29.477 10 25 14.477 25 20L25 80C25 85.523 29.477 90 35 90L65 90C70.523 90 75 85.523 75 80L75 20C75 14.477 70.523 10 65 10ZM70 80C70 82.761 67.761 85 65 85L35 85C32.239 85 30 82.761 30 80L30 20C30 17.239 32.239 15 35 15L40 15C40 17.761 42.239 20 45 20L55 20C57.761 20 60 17.761 60 15L65 15C67.761 15 70 17.239 70 20L70 80Z" stroke="none"/></g></svg>